<svg width="316" height="80" viewBox="0 0 316 80" fill="none" xmlns="http://www.w3.org/2000/svg">
<g filter="url(#filter0_d)">
<path d="M10 16C10 10.4772 14.4772 6 20 6H60C65.5228 6 70 10.4772 70 16V56C70 61.5228 65.5228 66 60 66H20C14.4772 66 10 61.5228 10 56V16Z" fill="#2E2E2E"/>
<path d="M21.8504 23.3135C21.3498 22.6809 21.1234 22.0292 21.1711 21.3583C21.2085 20.7353 21.5237 20.1891 22.1167 19.7199C22.7097 19.2506 23.3285 19.0577 23.9731 19.1412C24.6369 19.2489 25.2192 19.6191 25.7197 20.2517L36.8673 34.3395C37.3679 34.9721 37.5846 35.6116 37.5176 36.2581C37.4699 36.929 37.1495 37.499 36.5565 37.9682C35.9635 38.4375 35.3499 38.6065 34.7157 38.4753C34.0711 38.3919 33.4985 38.0339 32.9979 37.4013L21.8504 23.3135Z" fill="white"/>
<path d="M32.7784 34.737C33.3008 34.1222 33.8956 33.7726 34.5628 33.6881C35.1811 33.6027 35.7784 33.8048 36.3546 34.2945C36.9309 34.7841 37.2413 35.3532 37.2857 36.0016C37.31 36.6737 37.061 37.3171 36.5386 37.9319L24.9065 51.6222C24.3841 52.237 23.7994 52.5748 23.1523 52.6357C22.4851 52.7202 21.8634 52.5177 21.2871 52.028C20.7108 51.5384 20.4249 50.9698 20.4294 50.3221C20.385 49.6737 20.6239 49.0421 21.1463 48.4273L32.7784 34.737Z" fill="white"/>
<path d="M57.8796 48.6536C58.686 48.6752 59.3313 48.9194 59.8154 49.3863C60.2695 49.8145 60.4864 50.4066 60.4662 51.1625C60.4459 51.9185 60.1971 52.517 59.7197 52.9581C59.2113 53.3983 58.5539 53.6077 57.7475 53.5861L39.7892 53.1051C38.9828 53.0835 38.353 52.8397 37.8999 52.3737C37.4158 51.9068 37.1839 51.2954 37.2041 50.5395C37.2244 49.7836 37.4882 49.2044 37.9956 48.8019C38.473 48.3608 39.1149 48.1511 39.9213 48.1727L57.8796 48.6536Z" fill="#06D5A4"/>
</g>
<path d="M95.016 48.192C93.6507 48.192 92.4347 48.032 91.368 47.712C90.3013 47.392 89.4053 46.8053 88.68 45.952C87.9547 45.0987 87.4 43.8827 87.016 42.304C86.632 40.704 86.44 38.6347 86.44 36.096C86.44 33.6427 86.632 31.6373 87.016 30.08C87.4213 28.5227 87.9973 27.3067 88.744 26.432C89.4907 25.5573 90.3973 24.9493 91.464 24.608C92.5307 24.2667 93.736 24.096 95.08 24.096C96.6587 24.096 98.088 24.224 99.368 24.48C100.669 24.7147 101.704 24.96 102.472 25.216V28.896C101.896 28.768 101.021 28.6507 99.848 28.544C98.696 28.416 97.4373 28.352 96.072 28.352C95.176 28.352 94.408 28.4587 93.768 28.672C93.1493 28.864 92.648 29.2373 92.264 29.792C91.9013 30.3253 91.624 31.104 91.432 32.128C91.2613 33.152 91.176 34.4853 91.176 36.128C91.176 38.2613 91.3147 39.8933 91.592 41.024C91.8693 42.1333 92.36 42.9013 93.064 43.328C93.768 43.7333 94.7707 43.936 96.072 43.936C97.672 43.936 98.984 43.904 100.008 43.84C101.032 43.776 101.853 43.7013 102.472 43.616V47.264C101.597 47.5627 100.541 47.7973 99.304 47.968C98.088 48.1173 96.6587 48.192 95.016 48.192ZM112.622 48.16C110.723 48.16 109.198 47.8933 108.046 47.36C106.894 46.8053 106.051 45.888 105.518 44.608C105.006 43.328 104.75 41.5787 104.75 39.36C104.75 37.0133 105.016 35.2107 105.549 33.952C106.083 32.672 106.926 31.7867 108.078 31.296C109.23 30.8053 110.744 30.56 112.622 30.56C114.52 30.56 116.046 30.816 117.198 31.328C118.371 31.84 119.214 32.736 119.726 34.016C120.259 35.296 120.526 37.0773 120.526 39.36C120.526 41.6427 120.27 43.424 119.758 44.704C119.246 45.984 118.414 46.88 117.262 47.392C116.11 47.904 114.563 48.16 112.622 48.16ZM112.622 44.384C113.368 44.384 113.976 44.2773 114.446 44.064C114.915 43.8507 115.256 43.392 115.47 42.688C115.683 41.9627 115.79 40.8533 115.79 39.36C115.79 37.8453 115.683 36.736 115.47 36.032C115.256 35.328 114.915 34.8693 114.446 34.656C113.976 34.4427 113.368 34.336 112.622 34.336C111.875 34.336 111.267 34.4427 110.798 34.656C110.35 34.8693 110.019 35.328 109.806 36.032C109.592 36.736 109.486 37.8453 109.486 39.36C109.486 40.8533 109.592 41.9627 109.806 42.688C110.019 43.392 110.35 43.8507 110.798 44.064C111.267 44.2773 111.875 44.384 112.622 44.384ZM129.3 48.192C127.273 48.192 125.737 47.5413 124.692 46.24C123.668 44.9173 123.156 42.6987 123.156 39.584C123.156 37.472 123.348 35.7547 123.732 34.432C124.137 33.088 124.809 32.1067 125.748 31.488C126.686 30.8693 127.977 30.56 129.62 30.56C130.388 30.56 131.156 30.6453 131.924 30.816C132.713 30.9653 133.406 31.1467 134.004 31.36V23.584H138.772V48H134.772L134.004 46.368C133.449 46.8587 132.734 47.2853 131.86 47.648C131.006 48.0107 130.153 48.192 129.3 48.192ZM130.964 44.384C131.604 44.384 132.18 44.2773 132.692 44.064C133.225 43.8507 133.662 43.6373 134.004 43.424V34.784C133.598 34.6133 133.15 34.464 132.66 34.336C132.19 34.1867 131.689 34.112 131.156 34.112C130.366 34.112 129.726 34.2507 129.236 34.528C128.766 34.8053 128.425 35.328 128.212 36.096C127.998 36.8427 127.892 37.9307 127.892 39.36C127.892 40.704 127.988 41.7387 128.18 42.464C128.393 43.1893 128.724 43.6907 129.172 43.968C129.62 44.2453 130.217 44.384 130.964 44.384ZM142.9 28.288C142.452 28.288 142.228 28.0747 142.228 27.648V24.512C142.228 24.064 142.452 23.84 142.9 23.84H146.548C146.953 23.84 147.156 24.064 147.156 24.512V27.648C147.156 28.0747 146.953 28.288 146.548 28.288H142.9ZM142.324 48V30.816H147.06V48H142.324ZM155.147 55.936C153.526 55.936 152.182 55.584 151.115 54.88C150.048 54.176 149.515 53.152 149.515 51.808V51.296C149.515 50.4213 149.75 49.664 150.219 49.024C150.71 48.4053 151.339 47.9147 152.107 47.552C151.531 47.2107 151.094 46.7947 150.795 46.304C150.518 45.8133 150.379 45.28 150.379 44.704C150.379 43.8293 150.624 43.104 151.115 42.528C151.627 41.952 152.331 41.5573 153.227 41.344C152.203 40.7893 151.488 40.0747 151.083 39.2C150.678 38.3253 150.475 37.3973 150.475 36.416C150.475 34.5173 151.062 33.1093 152.235 32.192C153.408 31.2747 155.2 30.816 157.611 30.816H166.923V33.408L164.299 33.888C164.598 34.208 164.886 34.6347 165.163 35.168C165.44 35.68 165.579 36.448 165.579 37.472C165.579 38.4533 165.366 39.3493 164.939 40.16C164.534 40.9493 163.872 41.5787 162.955 42.048C162.059 42.496 160.864 42.72 159.371 42.72H156.331C155.755 42.72 155.286 42.8053 154.923 42.976C154.56 43.1467 154.379 43.456 154.379 43.904C154.379 44.2667 154.528 44.5227 154.827 44.672C155.147 44.8 155.499 44.864 155.883 44.864H160.619C162.582 44.864 164.107 45.2587 165.195 46.048C166.283 46.8373 166.827 48.16 166.827 50.016V50.496C166.827 52.1813 166.294 53.504 165.227 54.464C164.16 55.4453 162.518 55.936 160.299 55.936H155.147ZM157.003 39.168H158.827C159.808 39.168 160.459 38.9547 160.779 38.528C161.12 38.08 161.291 37.504 161.291 36.8C161.291 35.904 161.088 35.2747 160.683 34.912C160.278 34.5493 159.702 34.368 158.955 34.368H157.163C156.352 34.368 155.744 34.5493 155.339 34.912C154.934 35.2533 154.731 35.8613 154.731 36.736C154.731 37.5893 154.923 38.208 155.307 38.592C155.691 38.976 156.256 39.168 157.003 39.168ZM156.459 52.608H159.723C160.512 52.608 161.142 52.448 161.611 52.128C162.102 51.8293 162.347 51.3707 162.347 50.752V50.24C162.347 49.6853 162.144 49.2373 161.739 48.896C161.355 48.576 160.726 48.416 159.851 48.416H156.395C155.691 48.416 155.115 48.576 154.667 48.896C154.219 49.2373 153.995 49.728 153.995 50.368V50.72C153.995 51.9787 154.816 52.608 156.459 52.608ZM176.684 48.16C174.785 48.16 173.26 47.8933 172.108 47.36C170.956 46.8053 170.113 45.888 169.58 44.608C169.068 43.328 168.812 41.5787 168.812 39.36C168.812 37.0133 169.079 35.2107 169.612 33.952C170.145 32.672 170.988 31.7867 172.14 31.296C173.292 30.8053 174.807 30.56 176.684 30.56C178.583 30.56 180.108 30.816 181.26 31.328C182.433 31.84 183.276 32.736 183.788 34.016C184.321 35.296 184.588 37.0773 184.588 39.36C184.588 41.6427 184.332 43.424 183.82 44.704C183.308 45.984 182.476 46.88 181.324 47.392C180.172 47.904 178.625 48.16 176.684 48.16ZM176.684 44.384C177.431 44.384 178.039 44.2773 178.508 44.064C178.977 43.8507 179.319 43.392 179.532 42.688C179.745 41.9627 179.852 40.8533 179.852 39.36C179.852 37.8453 179.745 36.736 179.532 36.032C179.319 35.328 178.977 34.8693 178.508 34.656C178.039 34.4427 177.431 34.336 176.684 34.336C175.937 34.336 175.329 34.4427 174.86 34.656C174.412 34.8693 174.081 35.328 173.868 36.032C173.655 36.736 173.548 37.8453 173.548 39.36C173.548 40.8533 173.655 41.9627 173.868 42.688C174.081 43.392 174.412 43.8507 174.86 44.064C175.329 44.2773 175.937 44.384 176.684 44.384ZM188.37 48V29.184C188.37 27.968 188.594 27.0187 189.042 26.336C189.512 25.6533 190.098 25.1733 190.802 24.896C191.528 24.5973 192.264 24.448 193.01 24.448C194.397 24.4693 195.965 24.5013 197.714 24.544C199.464 24.5867 201.181 24.6613 202.866 24.768V26.784H193.618C192.765 26.784 192.104 27.0187 191.634 27.488C191.165 27.9573 190.93 28.6507 190.93 29.568V35.68L201.458 35.84V37.792L190.93 37.952V48H188.37ZM211.27 48.192C209.627 48.192 208.358 47.7653 207.462 46.912C206.587 46.0587 206.15 44.736 206.15 42.944V30.912H208.678V42.304C208.678 43.7333 208.998 44.704 209.638 45.216C210.278 45.7067 211.195 45.952 212.39 45.952C213.371 45.952 214.278 45.8133 215.11 45.536C215.942 45.2587 216.806 44.8533 217.702 44.32V30.912H220.23V48H218.246L217.702 46.112C216.827 46.688 215.835 47.1787 214.726 47.584C213.617 47.9893 212.465 48.192 211.27 48.192ZM231.523 48.192C229.731 48.192 228.312 47.9253 227.266 47.392C226.243 46.8587 225.507 45.952 225.059 44.672C224.611 43.392 224.387 41.6427 224.387 39.424C224.387 37.1627 224.611 35.4027 225.059 34.144C225.528 32.864 226.285 31.968 227.331 31.456C228.376 30.944 229.784 30.688 231.555 30.688C233.048 30.688 234.275 30.8587 235.235 31.2C236.195 31.5413 236.899 32.128 237.347 32.96C237.816 33.7707 238.051 34.9013 238.051 36.352C238.051 37.8667 237.613 38.9333 236.739 39.552C235.864 40.1707 234.68 40.48 233.187 40.48H226.915C226.915 41.8667 227.053 42.9867 227.331 43.84C227.629 44.672 228.152 45.28 228.899 45.664C229.645 46.0267 230.723 46.208 232.131 46.208H237.635V47.744C236.653 47.872 235.693 47.9787 234.755 48.064C233.837 48.1493 232.76 48.192 231.523 48.192ZM226.883 38.816H232.963C233.923 38.816 234.627 38.6453 235.075 38.304C235.544 37.9413 235.779 37.3013 235.779 36.384C235.779 34.9333 235.459 33.9413 234.819 33.408C234.179 32.8747 233.091 32.608 231.555 32.608C230.339 32.608 229.389 32.7893 228.707 33.152C228.045 33.4933 227.576 34.1227 227.299 35.04C227.021 35.936 226.883 37.1947 226.883 38.816ZM242.307 48V30.912H244.291L244.835 32.8C245.624 32.2453 246.563 31.744 247.651 31.296C248.76 30.848 249.902 30.624 251.075 30.624C252.334 30.624 253.347 30.8907 254.115 31.424C254.904 31.9573 255.47 32.6613 255.811 33.536C256.174 34.4107 256.355 35.36 256.355 36.384V48H253.827V36.672C253.827 35.584 253.507 34.688 252.867 33.984C252.248 33.28 251.384 32.928 250.275 32.928C249.166 32.928 248.206 33.0773 247.395 33.376C246.584 33.6747 245.731 34.08 244.835 34.592V48H242.307ZM266.784 48C265.141 48 263.914 47.584 263.104 46.752C262.293 45.8987 261.909 44.4693 261.952 42.464L262.048 32.992H259.328V31.36L262.08 30.912L262.496 26.144H264.448V30.912H269.376V32.992H264.448V42.464C264.448 43.4453 264.586 44.1813 264.864 44.672C265.141 45.1413 265.482 45.4613 265.888 45.632C266.293 45.8027 266.677 45.9093 267.04 45.952L269.12 46.144V48H266.784ZM279.398 48.192C277.606 48.192 276.187 47.9253 275.141 47.392C274.118 46.8587 273.382 45.952 272.934 44.672C272.486 43.392 272.262 41.6427 272.262 39.424C272.262 37.1627 272.486 35.4027 272.934 34.144C273.403 32.864 274.16 31.968 275.206 31.456C276.251 30.944 277.659 30.688 279.43 30.688C280.923 30.688 282.15 30.8587 283.11 31.2C284.07 31.5413 284.774 32.128 285.222 32.96C285.691 33.7707 285.926 34.9013 285.926 36.352C285.926 37.8667 285.488 38.9333 284.614 39.552C283.739 40.1707 282.555 40.48 281.062 40.48H274.79C274.79 41.8667 274.928 42.9867 275.206 43.84C275.504 44.672 276.027 45.28 276.774 45.664C277.52 46.0267 278.598 46.208 280.006 46.208H285.51V47.744C284.528 47.872 283.568 47.9787 282.63 48.064C281.712 48.1493 280.635 48.192 279.398 48.192ZM274.758 38.816H280.838C281.798 38.816 282.502 38.6453 282.95 38.304C283.419 37.9413 283.654 37.3013 283.654 36.384C283.654 34.9333 283.334 33.9413 282.694 33.408C282.054 32.8747 280.966 32.608 279.43 32.608C278.214 32.608 277.264 32.7893 276.582 33.152C275.92 33.4933 275.451 34.1227 275.174 35.04C274.896 35.936 274.758 37.1947 274.758 38.816Z" fill="#2E2E2E" fill-opacity="0.87"/>
<defs>
<filter id="filter0_d" x="0" y="0" width="80" height="80" filterUnits="userSpaceOnUse" color-interpolation-filters="sRGB">
<feFlood flood-opacity="0" result="BackgroundImageFix"/>
<feColorMatrix in="SourceAlpha" type="matrix" values="0 0 0 0 0 0 0 0 0 0 0 0 0 0 0 0 0 0 127 0"/>
<feOffset dy="4"/>
<feGaussianBlur stdDeviation="5"/>
<feColorMatrix type="matrix" values="0 0 0 0 0 0 0 0 0 0 0 0 0 0 0 0 0 0 0.25 0"/>
<feBlend mode="normal" in2="BackgroundImageFix" result="effect1_dropShadow"/>
<feBlend mode="normal" in="SourceGraphic" in2="effect1_dropShadow" result="shape"/>
</filter>
</defs>
</svg>
